<svg width="71" height="35" viewBox="0 0 71 35" fill="none" xmlns="http://www.w3.org/2000/svg">
<path d="M54.256 0.399998V19.84C54.256 24.608 52.8 28.288 49.888 30.88C47.008 33.472 42.96 34.768 37.744 34.768C33.456 34.768 29.984 33.712 27.328 31.6C24.704 33.712 21.232 34.768 16.912 34.768C11.728 34.768 7.68 33.472 4.768 30.88C1.888 28.288 0.448 24.608 0.448 19.84V0.399998H11.776V19.504C11.776 21.552 12.176 23.088 12.976 24.112C13.776 25.104 15.024 25.6 16.72 25.6C18.416 25.6 19.664 25.104 20.464 24.112C21.264 23.088 21.664 21.552 21.664 19.504V0.399998H32.992V19.504C32.992 21.552 33.392 23.088 34.192 24.112C35.024 25.104 36.288 25.6 37.984 25.6C39.68 25.6 40.928 25.104 41.728 24.112C42.528 23.088 42.928 21.552 42.928 19.504V0.399998H54.256ZM63.7491 34.48C61.9251 34.48 60.4051 33.904 59.1891 32.752C58.0051 31.568 57.4131 30.064 57.4131 28.24C57.4131 26.416 58.0051 24.944 59.1891 23.824C60.4051 22.672 61.9251 22.096 63.7491 22.096C65.5731 22.096 67.0771 22.672 68.2611 23.824C69.4771 24.944 70.0851 26.416 70.0851 28.24C70.0851 30.064 69.4771 31.568 68.2611 32.752C67.0771 33.904 65.5731 34.48 63.7491 34.48Z" fill="black"/>
</svg>
